inDegrees=no
num_controls=7
num_derivatives=13
num_iterations=197
num_multipliers=7
num_parameters=0
num_slacks=7
num_states=26
objective=5.960364
objective_accelerations=0.746641
objective_balance=0.022225
objective_effort=0.516855
objective_height=4.600364
objective_ligament=0.074279
solver_duration=1635.994641
status=Solve_Succeeded
success=true
DataType=double
version=3
OpenSimVersion=4.4-2022-07-23-0e9fedc
endheader
time	/jointset/ground_pelvis/pelvis_tilt/value	/jointset/ground_pelvis/pelvis_tx/value	/jointset/ground_pelvis/pelvis_ty/value	/jointset/hip_r/hip_flexion_r/value	/jointset/hip_r/hip_adduction_r/value	/jointset/hip_r/hip_rotation_r/value	/jointset/back/lumbar_extension/value	/jointset/patellofemoral_r/patellar_flexion_r/value	/jointset/knee_r/knee_flexion_r/value	/jointset/knee_r/knee_adduction_r/value	/jointset/knee_r/knee_rotation_r/value	/jointset/ankle_r/ankle_angle_r/value	/jointset/subtalar_r/subtalar_angle_r/value	/jointset/ground_pelvis/pelvis_tilt/speed	/jointset/ground_pelvis/pelvis_tx/speed	/jointset/ground_pelvis/pelvis_ty/speed	/jointset/hip_r/hip_flexion_r/speed	/jointset/hip_r/hip_adduction_r/speed	/jointset/hip_r/hip_rotation_r/speed	/jointset/back/lumbar_extension/speed	/jointset/patellofemoral_r/patellar_flexion_r/speed	/jointset/knee_r/knee_flexion_r/speed	/jointset/knee_r/knee_adduction_r/speed	/jointset/knee_r/knee_rotation_r/speed	/jointset/ankle_r/ankle_angle_r/speed	/jointset/subtalar_r/subtalar_angle_r/speed	/forceset/tau_hip_flexion_r	/forceset/tau_hip_adduction_r	/forceset/tau_hip_rotation_r	/forceset/tau_knee_flexion_r	/forceset/tau_ankle_angle_r	/forceset/tau_subtalar_angle_r	/forceset/tau_lumbar_extension	lambda_cid13_p0	lambda_cid14_p0	lambda_cid14_p1	lambda_cid14_p2	lambda_cid14_p3	lambda_cid14_p4	lambda_cid14_p5	/jointset/ground_pelvis/pelvis_tilt/accel	/jointset/ground_pelvis/pelvis_tx/accel	/jointset/ground_pelvis/pelvis_ty/accel	/jointset/hip_r/hip_flexion_r/accel	/jointset/hip_r/hip_adduction_r/accel	/jointset/hip_r/hip_rotation_r/accel	/jointset/back/lumbar_extension/accel	/jointset/patellofemoral_r/patellar_flexion_r/accel	/jointset/knee_r/knee_flexion_r/accel	/jointset/knee_r/knee_adduction_r/accel	/jointset/knee_r/knee_rotation_r/accel	/jointset/ankle_r/ankle_angle_r/accel	/jointset/subtalar_r/subtalar_angle_r/accel	gamma_cid13_p0	gamma_cid14_p0	gamma_cid14_p1	gamma_cid14_p2	gamma_cid14_p3	gamma_cid14_p4	gamma_cid14_p5
0.5	-0.1819483066506546	0.01500410611117398	0.7833732618953428	0.9996377926195986	-0.2372702019709368	-0.07567740408752908	-0.6585099426151304	1.033528426274498	1.033528426274542	-0.007570490370912384	0.1745323284647408	0.3027161000484852	0.1186325810284563	-0.4685153577162739	-0.217732868352308	-0.5921784571918781	2.154403316006937	-0.04317951082211324	0.4224161469664433	-0.7283760788451377	2.131599991554263	2.131599991554279	-0.2214972721667116	-3.503547610387119e-05	0.5330309695472464	0.1265889743096252	-0.2242714435302202	0.002153185196235718	0.02469976460215102	-0.2938373071242915	-5.211557150068583e-06	-2.982503910919617e-05	0.2574078398962636	-4.637474917914238	-42.26232298742147	-5.968662295746174	-0.2760277606079388	-5.315658247198551	-640.308931741914	64.1582340479696	0.4838660529512701	0.7033772654635906	-0.4585714300198554	-1.463933482572104	0.03969201471815774	0.0112078420287146	2.040032219840704	-1.584720559537381	-1.584720559537381	0.8337856832001167	-0.04686464504267555	-0.7237021542306056	-0.1098993952495561	-1.471031589915805e-07	-1.518399335252229e-08	1.906868955455864e-06	-4.144947545328617e-07	-1.956312945094226e-07	-2.425392233211705e-07	1.197946085640213e-06
0.51	-0.1866081826399879	0.01286210762190042	0.777429979100728	1.021105164602816	-0.2377005997005555	-0.07145391900054231	-0.6656913691029469	1.054761878539055	1.054761878539066	-0.009742991395244092	0.174531753364756	0.30800899939562	0.1198915755686803	-0.4633862058450166	-0.2106527916316196	-0.5963405881302059	2.138783354087839	-0.04287685892074133	0.4222648813153811	-0.7078328822276315	2.114792985098596	2.114792985098612	-0.2130024149351513	-7.894739036849586e-05	0.525463907322247	0.1252077977054382	-0.2316574796694932	0.002764906865443386	0.02479820266160656	-0.299370681924286	-0.001089714270503713	0.0004747571836281917	0.2641216558252422	-3.847687237891063	-42.96787835773107	-5.962083345793155	-0.1753905142920523	-5.248071115185209	-646.3091380652339	64.71396822229838	0.5384838220487045	0.7123912192803306	-0.3744540576141352	-1.6541894887424	0.02906601841699285	-0.03092219795195141	2.072913856336823	-1.773282751881404	-1.773282751881465	0.8576703368283493	0.01696449082121291	-0.7860145586224445	-0.1523135523956865	-1.464711530830094e-07	-2.389291510665997e-08	1.758565529835187e-06	-4.772939135225652e-07	-1.796743409109504e-07	-2.271015071704182e-07	1.090847644505306e-06
0.52	-0.1912145582970479	0.01079132356861583	0.7714491909703548	1.042407704578406	-0.2381272680630576	-0.06723247225591739	-0.6726650735298626	1.075818342326384	1.075818342326385	-0.01183047692858321	0.1745307629367561	0.313223666860108	0.1211367409909821	-0.4578152912603224	-0.2034899811545113	-0.5996795243435297	2.121436914482201	-0.04243363739653818	0.4220084784931747	-0.6868316666648788	2.096202296110923	2.096202296110938	-0.2044941739558074	-0.0001181010870454336	0.5173845930177333	0.1238231507255507	-0.2390435158087597	0.003376628534615386	0.02489664072122409	-0.3049040567242688	-0.002174216983870314	0.0009793394063025605	0.2708354717542287	-3.134466669135627	-43.66866407556495	-5.945387289652341	-0.0869682380386444	-5.219014113338818	-652.2605724768509	65.3221484583769	0.5722185956386907	0.7199240167475713	-0.2939324850190376	-1.809229019879975	0.06780593928438282	-0.009819592200200367	2.131636008889985	-1.941457065938935	-1.941457065938942	0.8364624327569226	-0.0459130015249572	-0.8261525701335309	-0.1105934703897969	-1.456521966380301e-07	-3.08502882444407e-08	1.617315762590885e-06	-5.275924949528707e-07	-1.655134280185439e-07	-2.094057759665787e-07	9.816377889353788e-07
0.53	-0.19576313676206	0.008792491560466178	0.7654391455438757	1.063528399645564	-0.2385487591189293	-0.06301398404766889	-0.6794265870250691	1.09668018358364	1.096680183583617	-0.01383288055448767	0.1745292396600387	0.3183550754409057	0.1223681212443639	-0.4518320036922294	-0.1962707302479963	-0.6021888517139911	2.102425650686242	-0.04183942425214805	0.4216524574937647	-0.6654130407765004	2.075879725127469	2.075879725127478	-0.1960093122790363	-0.0001819611191265037	0.5088194842836539	0.1224570501752568	-0.2462895733754978	0.003966716743817623	0.02496797430765586	-0.3105547019800041	-0.003337015132019088	0.001346668190989513	0.2773689065938398	-2.496811623960109	-44.41309752936571	-6.002417765670849	0.02060389669697066	-5.066570348281759	-658.2736615536072	65.81257960705059	0.6216391789813517	0.7237475466260742	-0.2083664995331417	-1.988548316156511	0.05900450045336776	-0.05422001490477069	2.155674618842314	-2.120562602001178	-2.120562602002174	0.8513052136094286	0.01400357146836262	-0.8833854828623711	-0.1488190435783982	-1.440721888358635e-07	-3.581567769514263e-08	1.48553981381516e-06	-5.642535925328352e-07	-1.534103268287693e-07	-1.908226100610448e-07	8.781075559251016e-07
0.54	-0.2002498312830802	0.006866016445186532	0.7594082201163973	1.084450687423419	-0.2389635529436798	-0.0588002013816303	-0.685972174513386	1.117330218033568	1.117330218033528	-0.01575107412800753	0.1745272029981183	0.3233984938428	0.1235860003529952	-0.4454385024606589	-0.1890186025805097	-0.6038555245433908	2.081755456622188	-0.04109419117025534	0.4210673700506062	-0.6436464652869032	2.053840934645912	2.053840934645913	-0.1876521634633674	-0.0002207781304829818	0.4997865572368849	0.1211229217757915	-0.2535356309422279	0.004556804952981603	0.02503930789429452	-0.3162053472357239	-0.00449981328018196	0.001713996975606845	0.2839023414334597	-1.933812895499251	-45.15420631994816	-6.050059672324501	0.116620199561394	-4.951349002947027	-664.2581207956132	66.35639094475503	0.6542613283342519	0.7264993689419054	-0.1254015768067325	-2.141015073498813	0.09800992678486531	-0.05563288095001531	2.201225929133749	-2.284700965559552	-2.284700965559562	0.8109198605365598	-0.04090439737982138	-0.9197162326714868	-0.1041990402242319	-1.416501667661703e-07	-3.857717030056587e-08	1.364245536536586e-06	-5.858264101081669e-07	-1.435839534802045e-07	-1.712576015068278e-07	7.808611606403944e-07
0.55	-0.2046706534160561	0.005012153956946901	0.7533648119933372	1.105158280245831	-0.2393701178825234	-0.05459327844613725	-0.6922984572900709	1.137751618041409	1.137751618041428	-0.01758639677155837	0.1745247434053939	0.3283494132248512	0.1247907776827354	-0.4386609016027601	-0.1817547977478194	-0.6046866284122273	2.059501762360379	-0.04019521384667869	0.420268697237086	-0.6215706981640838	2.030177885227844	2.030177885227845	-0.1794497496441145	-0.0002652753736393071	0.4903341515311456	0.1198403279279197	-0.2605429383638282	0.005064773185426882	0.02508982917179892	-0.3218959781081489	-0.005670658383482171	0.001971134348608399	0.2901596585172131	-1.444852189622323	-45.90104240821175	-6.151596800651127	0.2269815183803874	-4.75297083553957	-670.1103028790784	66.80200401932048	0.6992562435032237	0.7261579935536768	-0.04107616061914911	-2.306756247366248	0.08935932514754016	-0.09946881943836454	2.216660886791463	-2.446256118226922	-2.44625611822692	0.8194860355160704	0.01457968484076488	-0.9675204132365737	-0.1389889377151915	-1.38512533382064e-07	-4.037760336813218e-08	1.250095628062615e-06	-5.981127079844162e-07	-1.344246508267019e-07	-1.53186478492142e-07	6.891915065964864e-07
0.5600000000000001	-0.209021750184662	0.00323089690765872	0.747317270557849	1.125635494196653	-0.2397669895101401	-0.05039583910635044	-0.6984028006389409	1.157928557717407	1.157928557717491	-0.01934077849840383	0.1745219992547649	0.3332039050151031	0.1259829891978659	-0.4314934295854342	-0.1744975147902199	-0.6046821870289432	2.035679682304809	-0.03915552892294628	0.4191706509081408	-0.5992585797238507	2.004948868277915	2.004948868277916	-0.1714639801089988	-0.0002776897118235153	0.4805010388769493	0.1186097588541857	-0.2675502457854175	0.005572741417847693	0.0251403504494938	-0.3275866089805597	-0.006841503486792881	0.002228271721563091	0.2964169756009769	-1.029492704795274	-46.64593705124881	-6.244279858342447	0.3262060288239115	-4.591131852184086	-675.9542153906415	67.30110335822826	0.7322355602196815	0.7251949939237654	0.04170747361744759	-2.454692232250965	0.1261514468159878	-0.1155075840351158	2.248496192616452	-2.597894471931808	-2.597894471931802	0.7675910037091531	-0.03448781638520152	-0.9958576223629161	-0.09379408539680827	-1.34516166420662e-07	-4.102476499027024e-08	1.144518962154165e-06	-5.992551822217666e-07	-1.26065833007274e-07	-1.369080181248933e-07	6.042139420415371e-07
